<?xml version="1.0" standalone="no"?><!DOCTYPE svg PUBLIC "-//W3C//DTD SVG 1.1//EN" "http://www.w3.org/Graphics/SVG/1.1/DTD/svg11.dtd"><svg t="1594784783363" class="icon" viewBox="0 0 1024 1024" version="1.1" xmlns="http://www.w3.org/2000/svg" p-id="1079" width="56" height="56" xmlns:xlink="http://www.w3.org/1999/xlink"><defs><style type="text/css"></style></defs><path d="M80.76288 789.92384h779.1616s185.51808-162.58048-24.7296-302.47936c0 0-17.00864-272.22016-234.98752-272.22016 0 0-225.71008-39.70048-247.35744 287.34464 0 0-168.46848-17.408-173.14816 181.48352-111.81056 0.768-127.5392 105.87136-98.93888 105.87136z" fill="#FFFFFF" p-id="1080"></path><path d="M101.24288 810.40384h779.1616s185.51808-162.58048-24.7296-302.47936c0 0-17.00864-272.22016-234.98752-272.22016 0 0-225.71008-39.70048-247.35744 287.34464 0 0-168.46848-17.408-173.14816 181.49376-111.81056 0.75776-127.5392 105.86112-98.93888 105.86112z" fill="#FFCD00" p-id="1081"></path></svg>