<?xml version="1.0" standalone="no"?><!DOCTYPE svg PUBLIC "-//W3C//DTD SVG 1.1//EN" "http://www.w3.org/Graphics/SVG/1.1/DTD/svg11.dtd"><svg t="1594793004473" class="icon" viewBox="0 0 1024 1024" version="1.1" xmlns="http://www.w3.org/2000/svg" p-id="3598" width="56" height="56" xmlns:xlink="http://www.w3.org/1999/xlink"><defs><style type="text/css"></style></defs><path d="M765.24544 726.24128a22.016 22.016 0 0 1-19.968 1.16736l-41.984 24.68864a41.23648 41.23648 0 0 1 1.69984 11.48928c0 1.08544-0.17408 2.12992-0.256 3.19488l40.57088 23.83872a22.016 22.016 0 0 1 19.968 1.16736 22.8352 22.8352 0 0 1 11.14112 19.85536 9.13408 9.13408 0 0 1-0.67584 7.41376l-4.48512 7.91552a8.88832 8.88832 0 0 1-5.98016 4.3008 22.0672 22.0672 0 0 1-22.46656 0.11264 22.79424 22.79424 0 0 1-10.97728-17.00864l-38.16448-22.4256a40.79616 40.79616 0 0 1-15.63648 10.24v43.76576a22.86592 22.86592 0 0 1-2.34496 37.888 8.77568 8.77568 0 0 1-6.63552 3.072h-8.99072a8.79616 8.79616 0 0 1-6.64576-3.072 22.87616 22.87616 0 0 1-2.34496-37.888v-43.74528a40.76544 40.76544 0 0 1-15.62624-10.24l-38.16448 22.4256a22.784 22.784 0 0 1-10.98752 17.00864 22.04672 22.04672 0 0 1-22.45632-0.11264 8.86784 8.86784 0 0 1-5.98016-4.3008l-4.49536-7.91552a9.216 9.216 0 0 1-0.6656-7.41376 22.85568 22.85568 0 0 1 11.13088-19.85536 22.016 22.016 0 0 1 19.968-1.16736l40.57088-23.83872c-0.08192-1.024-0.24576-2.10944-0.24576-3.19488a41.23648 41.23648 0 0 1 1.69984-11.48928l-41.984-24.68864a22.016 22.016 0 0 1-19.968-1.16736 22.85568 22.85568 0 0 1-11.13088-19.85536 9.216 9.216 0 0 1 0.6656-7.41376l4.49536-7.91552a8.86784 8.86784 0 0 1 5.98016-4.3008 22.02624 22.02624 0 0 1 22.45632-0.1024 22.74304 22.74304 0 0 1 10.98752 17.00864l44.56448 26.17344a40.56064 40.56064 0 0 1 9.216-4.87424v-52.91008a22.87616 22.87616 0 0 1 2.34496-37.888 8.78592 8.78592 0 0 1 6.64576-3.072h8.89856a8.76544 8.76544 0 0 1 6.63552 3.072 22.86592 22.86592 0 0 1 2.34496 37.888v52.91008a40.63232 40.63232 0 0 1 9.216 4.87424l44.56448-26.17344a22.76352 22.76352 0 0 1 10.97728-17.00864 22.04672 22.04672 0 0 1 22.46656 0.1024 8.88832 8.88832 0 0 1 5.98016 4.3008l4.48512 7.91552a9.13408 9.13408 0 0 1 0.67584 7.41376 22.8352 22.8352 0 0 1-11.08992 19.83488z m-307.2 65.536a22.8352 22.8352 0 0 1 11.14112 19.85536 9.13408 9.13408 0 0 1-0.67584 7.41376l-4.48512 7.91552a8.88832 8.88832 0 0 1-5.98016 4.3008 22.0672 22.0672 0 0 1-22.46656 0.11264 22.79424 22.79424 0 0 1-10.97728-17.00864l-38.16448-22.4256a40.79616 40.79616 0 0 1-15.63648 10.24v43.76576a22.86592 22.86592 0 0 1-2.34496 37.888 8.77568 8.77568 0 0 1-6.63552 3.072h-8.99072a8.79616 8.79616 0 0 1-6.64576-3.072 22.87616 22.87616 0 0 1-2.34496-37.888v-43.73504a40.76544 40.76544 0 0 1-15.62624-10.24l-38.16448 22.4256a22.784 22.784 0 0 1-10.98752 17.00864 22.04672 22.04672 0 0 1-22.45632-0.11264 8.86784 8.86784 0 0 1-5.98016-4.3008l-4.49536-7.91552a9.216 9.216 0 0 1-0.6656-7.41376 22.85568 22.85568 0 0 1 11.13088-19.85536 22.016 22.016 0 0 1 19.968-1.16736l40.57088-23.83872c-0.08192-1.024-0.24576-2.10944-0.24576-3.19488a41.23648 41.23648 0 0 1 1.69984-11.48928l-41.984-24.68864a22.016 22.016 0 0 1-19.968-1.16736 22.85568 22.85568 0 0 1-11.13088-19.85536 9.216 9.216 0 0 1 0.6656-7.41376l4.49536-7.91552a8.86784 8.86784 0 0 1 5.98016-4.3008 22.02624 22.02624 0 0 1 22.45632-0.1024 22.74304 22.74304 0 0 1 10.98752 17.00864l44.56448 26.17344a40.56064 40.56064 0 0 1 9.216-4.87424v-52.91008a22.87616 22.87616 0 0 1 2.34496-37.888 8.78592 8.78592 0 0 1 6.64576-3.072h8.92928a8.76544 8.76544 0 0 1 6.63552 3.072 22.86592 22.86592 0 0 1 2.34496 37.888v52.91008a40.63232 40.63232 0 0 1 9.216 4.87424l44.56448-26.17344a22.76352 22.76352 0 0 1 10.97728-17.00864 22.04672 22.04672 0 0 1 22.46656 0.1024 8.88832 8.88832 0 0 1 5.98016 4.3008l4.48512 7.91552a9.13408 9.13408 0 0 1 0.67584 7.41376 22.8352 22.8352 0 0 1-11.14112 19.85536 22.016 22.016 0 0 1-19.968 1.16736l-41.984 24.68864a41.23648 41.23648 0 0 1 1.69984 11.48928c0 1.08544-0.17408 2.12992-0.256 3.19488l40.57088 23.83872a22.016 22.016 0 0 1 19.98848 1.14688z" fill="#FFCD00" p-id="3599"></path><path d="M88.97536 569.57952h779.1616s185.51808-121.93792-24.73984-226.85696c0 0-16.9984-204.17536-234.98752-204.17536 0 0-225.69984-29.76768-247.3472 215.51104 0 0-161.2288-21.92384-157.32736 123.36128-102.98368-44.11392-143.0016 92.0064-114.75968 92.16z" fill="#CCDCF5" p-id="3600"></path><path d="M204.9024 683.73504a10.35264 10.35264 0 0 1-9.10336 0.512l-19.1488 10.86464a17.53088 17.53088 0 0 1 0.768 5.05856c0 0.47104-0.07168 0.93184-0.11264 1.40288l18.49344 10.48576a10.32192 10.32192 0 0 1 9.10336 0.52224 9.99424 9.99424 0 0 1 5.12 8.72448 3.88096 3.88096 0 0 1-0.3072 3.26656l-2.048 3.4816a4.03456 4.03456 0 0 1-2.72384 1.8944 10.37312 10.37312 0 0 1-10.24 0 10.0352 10.0352 0 0 1-5.00736-7.48544l-17.408-9.87136a18.432 18.432 0 0 1-7.168 4.51584v19.26144a9.87136 9.87136 0 0 1-1.024 16.68096 4.096 4.096 0 0 1-3.072 1.37216h-4.096a4.096 4.096 0 0 1-3.072-1.37216 9.87136 9.87136 0 0 1-1.024-16.68096V717.1072a18.62656 18.62656 0 0 1-7.168-4.51584l-17.408 9.87136a9.97376 9.97376 0 0 1-5.00736 7.48544 10.35264 10.35264 0 0 1-10.24 0 4.096 4.096 0 0 1-2.73408-1.8944l-2.048-3.4816a3.91168 3.91168 0 0 1-0.29696-3.26656 9.94304 9.94304 0 0 1 5.12-8.72448 10.30144 10.30144 0 0 1 9.09312-0.52224l18.49344-10.48576c0-0.47104-0.11264-0.93184-0.11264-1.40288a17.53088 17.53088 0 0 1 0.77824-5.05856l-19.15904-10.86464a10.33216 10.33216 0 0 1-9.09312-0.512 9.95328 9.95328 0 0 1-5.12-8.73472 3.91168 3.91168 0 0 1 0.29696-3.26656l2.048-3.4816a4.096 4.096 0 0 1 2.73408-1.8944 10.35264 10.35264 0 0 1 10.24 0 9.96352 9.96352 0 0 1 5.00736 7.48544l20.31616 11.50976a19.15904 19.15904 0 0 1 4.20864-2.14016v-23.33696a9.8816 9.8816 0 0 1 1.024-16.6912 4.096 4.096 0 0 1 3.072-1.37216h4.096a4.096 4.096 0 0 1 3.072 1.37216 9.8816 9.8816 0 0 1 1.024 16.6912v23.27552a18.70848 18.70848 0 0 1 4.20864 2.14016l20.31616-11.50976a10.01472 10.01472 0 0 1 5.00736-7.48544 10.37312 10.37312 0 0 1 10.24 0 4.03456 4.03456 0 0 1 2.72384 1.8944l2.048 3.4816a3.88096 3.88096 0 0 1 0.3072 3.26656 9.99424 9.99424 0 0 1-5.0176 8.79616z" fill="#FFCD00" p-id="3601"></path><path d="M901.2224 683.73504a10.35264 10.35264 0 0 1-9.10336 0.512l-19.1488 10.86464a17.53088 17.53088 0 0 1 0.768 5.05856c0 0.47104-0.07168 0.93184-0.11264 1.40288l18.49344 10.48576a10.32192 10.32192 0 0 1 9.10336 0.52224 9.99424 9.99424 0 0 1 5.12 8.72448 3.88096 3.88096 0 0 1-0.3072 3.26656l-2.048 3.4816a4.03456 4.03456 0 0 1-2.72384 1.8944 10.37312 10.37312 0 0 1-10.24 0 10.00448 10.00448 0 0 1-5.00736-7.48544l-17.408-9.87136a18.432 18.432 0 0 1-7.168 4.51584v19.26144a9.87136 9.87136 0 0 1-1.024 16.68096 4.096 4.096 0 0 1-3.072 1.37216h-4.096a4.096 4.096 0 0 1-3.072-1.37216 9.87136 9.87136 0 0 1-1.024-16.68096V717.1072a18.62656 18.62656 0 0 1-7.168-4.51584l-17.408 9.87136a9.97376 9.97376 0 0 1-5.00736 7.48544 10.35264 10.35264 0 0 1-10.24 0 4.096 4.096 0 0 1-2.73408-1.8944l-2.048-3.4816a3.91168 3.91168 0 0 1-0.29696-3.26656 9.96352 9.96352 0 0 1 5.12-8.72448 10.32192 10.32192 0 0 1 9.10336-0.52224l18.49344-10.48576c0-0.47104-0.11264-0.93184-0.11264-1.40288a17.53088 17.53088 0 0 1 0.77824-5.05856l-19.15904-10.86464a10.35264 10.35264 0 0 1-9.10336-0.512 9.96352 9.96352 0 0 1-5.12-8.73472 3.91168 3.91168 0 0 1 0.29696-3.26656l2.048-3.4816a4.096 4.096 0 0 1 2.73408-1.8944 10.35264 10.35264 0 0 1 10.24 0 9.96352 9.96352 0 0 1 5.00736 7.48544l20.31616 11.50976a19.15904 19.15904 0 0 1 4.20864-2.14016v-23.33696a9.8816 9.8816 0 0 1 1.024-16.6912 4.096 4.096 0 0 1 3.072-1.37216h4.096a4.096 4.096 0 0 1 3.072 1.37216 9.8816 9.8816 0 0 1 1.024 16.6912v23.27552a18.70848 18.70848 0 0 1 4.20864 2.14016l20.31616-11.50976a9.984 9.984 0 0 1 5.00736-7.48544 10.37312 10.37312 0 0 1 10.24 0 4.03456 4.03456 0 0 1 2.72384 1.8944l2.048 3.4816a3.88096 3.88096 0 0 1 0.3072 3.26656 9.99424 9.99424 0 0 1-5.0176 8.79616z" fill="#FFCD00" p-id="3602"></path></svg>