<?xml version="1.0" standalone="no"?><!DOCTYPE svg PUBLIC "-//W3C//DTD SVG 1.1//EN" "http://www.w3.org/Graphics/SVG/1.1/DTD/svg11.dtd"><svg t="1594793018651" class="icon" viewBox="0 0 1024 1024" version="1.1" xmlns="http://www.w3.org/2000/svg" p-id="3835" width="56" height="56" xmlns:xlink="http://www.w3.org/1999/xlink"><defs><style type="text/css"></style></defs><path d="M765.3376 727.04c-87.3472-1.20832-210.1248-14.7456-262.7584-112.09728-41.5744 104.20224-163.84 122.6752-233.984 122.33728C166.7072 736.79872 7.7824 691.2 10.24 522.24c2.8672-197.09952 171.4176-214.17984 228.5568-215.04 64.8192-1.024 193.4336 28.04736 250.1632 121.6C533.0944 305.77664 687.5136 296.47872 735.5392 296.96 862.208 298.24 1013.76 396.8 1013.76 522.24S884.6336 728.68864 765.3376 727.04zM228.864 419.84c-124.2112 2.56-159.0272 81.92-159.0272 81.92v30.72c0 43.59168 95.8464 82.03264 172.8512 81.92 72.704-0.14336 174.3872-87.93088 174.8992-133.12 0.2048-17.18272-89.3952-63.488-188.7232-61.44z m685.568 61.44s-44.7488-58.88-168.96-61.44c-99.328-2.048-169.0624 105.69728-168.8576 122.88 0.4096 45.1584 116.1216 71.53664 188.7232 71.68 77.1072 0.1536 158.9248-47.4624 159.0272-92.16a69.632 69.632 0 0 0-9.9328-40.96z" fill="#FFCC00" p-id="3836"></path><path d="M762.2656 256a51.2 51.2 0 1 1 51.2-51.2 51.2 51.2 0 0 1-51.2 51.2z m-235.52 20.48a51.2 51.2 0 1 1 51.2-51.2 51.2 51.2 0 0 1-51.2 51.2z m-266.24-20.48a51.2 51.2 0 1 1 51.2-51.2 51.2 51.2 0 0 1-51.2 51.2z m30.72 512a51.2 51.2 0 1 1-51.2 51.2 51.2 51.2 0 0 1 51.2-51.2z m235.52-20.48a51.2 51.2 0 1 1-51.2 51.2 51.2 51.2 0 0 1 51.2-51.2z m235.52 20.48a51.2 51.2 0 1 1-51.2 51.2 51.2 51.2 0 0 1 51.2-51.2z" fill="#CCDCF5" p-id="3837"></path></svg>