<?xml version="1.0" standalone="no"?><!DOCTYPE svg PUBLIC "-//W3C//DTD SVG 1.1//EN" "http://www.w3.org/Graphics/SVG/1.1/DTD/svg11.dtd"><svg t="1594792969754" class="icon" viewBox="0 0 1024 1024" version="1.1" xmlns="http://www.w3.org/2000/svg" p-id="3128" width="56" height="56" xmlns:xlink="http://www.w3.org/1999/xlink"><defs><style type="text/css"></style></defs><path d="M874.8544 542.72h-133.12a25.6 25.6 0 0 1-25.6-25.6v-10.24a25.6 25.6 0 0 1 25.6-25.6h133.12a25.6 25.6 0 0 1 25.6 25.6v10.24a25.6 25.6 0 0 1-25.6 25.6zM705.42336 367.2064a25.6 25.6 0 0 1-36.20864 0l-7.23968-7.23968a25.6 25.6 0 0 1 0-36.1984l94.12608-94.13632a25.6 25.6 0 0 1 36.20864 0l7.20896 7.23968a25.6 25.6 0 0 1 0 36.20864zM517.91872 317.44h-10.24a25.6 25.6 0 0 1-25.6-25.6v-133.12a25.6 25.6 0 0 1 25.6-25.6h10.24a25.6 25.6 0 0 1 25.6 25.6v133.12a25.6 25.6 0 0 1-25.6 25.6z m-162.19136 49.7664a25.74336 25.74336 0 0 1-36.33152 0l-94.464-94.12608a25.6 25.6 0 0 1 0-36.20864l7.2704-7.23968a25.76384 25.76384 0 0 1 36.33152 0l94.45376 94.13632a25.52832 25.52832 0 0 1 0 36.1984z m-47.104 139.6736v10.24A25.6 25.6 0 0 1 282.9312 542.72H149.37088a25.6 25.6 0 0 1-25.69216-25.6v-10.24a25.6 25.6 0 0 1 25.69216-25.6h133.5808a25.6 25.6 0 0 1 25.69216 25.6z m10.752 149.9136a25.74336 25.74336 0 0 1 36.33152 0l7.2704 7.23968a25.52832 25.52832 0 0 1 0 36.1984l-94.45376 94.13632a25.76384 25.76384 0 0 1-36.33152 0l-7.2704-7.24992a25.52832 25.52832 0 0 1 0-36.1984zM507.67872 706.56h10.45504a25.6 25.6 0 0 1 25.6 25.6v133.12a25.6 25.6 0 0 1-25.6 25.6h-10.45504a25.6 25.6 0 0 1-25.6-25.6v-133.12a25.6 25.6 0 0 1 25.6-25.6z m162.19136-49.7664a25.74336 25.74336 0 0 1 36.33152 0l94.464 94.12608a25.6 25.6 0 0 1 0 36.1984l-7.2704 7.24992a25.76384 25.76384 0 0 1-36.33152 0l-94.464-94.13632a25.52832 25.52832 0 0 1 0-36.1984z" fill="#FFCD00" p-id="3129"></path><path d="M517.91872 517.12m-158.72 0a158.72 158.72 0 1 0 317.44 0 158.72 158.72 0 1 0-317.44 0Z" fill="#FFCD00" p-id="3130"></path></svg>