<?xml version="1.0" standalone="no"?><!DOCTYPE svg PUBLIC "-//W3C//DTD SVG 1.1//EN" "http://www.w3.org/Graphics/SVG/1.1/DTD/svg11.dtd"><svg t="1594791129820" class="icon" viewBox="0 0 1024 1024" version="1.1" xmlns="http://www.w3.org/2000/svg" p-id="1314" width="56" height="56" xmlns:xlink="http://www.w3.org/1999/xlink"><defs><style type="text/css"></style></defs><path d="M867.9424 559.04256H88.7808c-28.2624-0.1536 11.776-136.26368 114.688-92.16-3.8912-145.28512 157.3888-123.35104 157.3888-123.35104 21.6064-245.28896 247.296-215.51104 247.296-215.51104 218.0096 0 235.008 204.16512 235.008 204.16512 210.2272 104.91904 24.7808 226.85696 24.7808 226.85696z" fill="#CCDCF5" p-id="1315"></path><path d="M295.6288 852.46976a46.08 46.08 0 0 1-92.16 0c0-24.576 46.08-98.8672 46.08-98.8672s46.08 74.30144 46.08 98.8672z m40.96-252.4672s40.96 63.68256 40.96 84.74624a41.0624 41.0624 0 0 1-81.92 0c0-21.06368 40.96-84.74624 40.96-84.74624z m174.08 252.4672a46.08 46.08 0 0 1-92.16 0c0-24.576 46.08-98.8672 46.08-98.8672s46.08 74.30144 46.08 98.8672z m40.96-252.4672s40.96 63.68256 40.96 84.74624a41.0624 41.0624 0 0 1-81.92 0c0-21.06368 40.96-84.74624 40.96-84.74624z m143.36 252.4672a46.08 46.08 0 0 1-92.16 0c0-24.576 46.08-98.8672 46.08-98.8672s46.08 74.30144 46.08 98.8672z m40.96-252.4672s40.96 63.68256 40.96 84.74624a41.0624 41.0624 0 0 1-81.92 0c0-21.06368 40.96-84.74624 40.96-84.74624z" fill="#FFCD00" p-id="1316"></path></svg>