<?xml version="1.0" standalone="no"?><!DOCTYPE svg PUBLIC "-//W3C//DTD SVG 1.1//EN" "http://www.w3.org/Graphics/SVG/1.1/DTD/svg11.dtd"><svg t="1594792979178" class="icon" viewBox="0 0 1024 1024" version="1.1" xmlns="http://www.w3.org/2000/svg" p-id="3363" width="56" height="56" xmlns:xlink="http://www.w3.org/1999/xlink"><defs><style type="text/css"></style></defs><path d="M829.2352 809.12384h-634.88a30.72 30.72 0 0 1-30.72-30.72v-51.2a30.72 30.72 0 0 1 30.72-30.72h634.88a30.72 30.72 0 0 1 30.72 30.72v51.2a30.72 30.72 0 0 1-30.72 30.72z m0-245.76h-634.88a30.72 30.72 0 0 1-30.72-30.72v-51.2a30.72 30.72 0 0 1 30.72-30.72h634.88a30.72 30.72 0 0 1 30.72 30.72v51.2a30.72 30.72 0 0 1-30.72 30.72z m0-235.52h-634.88a30.72 30.72 0 0 1-30.72-30.72v-51.2a30.72 30.72 0 0 1 30.72-30.72h634.88a30.72 30.72 0 0 1 30.72 30.72v51.2a30.72 30.72 0 0 1-30.72 30.72z" fill="#FFCD00" p-id="3364"></path><path d="M829.2352 563.36384h-634.88a30.72 30.72 0 0 1-30.72-30.72v-51.2a30.72 30.72 0 0 1 30.72-30.72h634.88a30.72 30.72 0 0 1 30.72 30.72v51.2a30.72 30.72 0 0 1-30.72 30.72z" fill="#CCDCF5" p-id="3365"></path></svg>